<svg id="Слой_1" data-name="Слой 1" xmlns="http://www.w3.org/2000/svg" viewBox="0 0 150 190"><defs><style>.cls-1{fill-rule:evenodd;}</style></defs><title>Монтажная область 9</title><path class="cls-1" d="M108,146.88c-13.54,0-31.08-.09-42.4-.09-20.35,0-22.63-27.28-6.25-33.19-.08-12,6.63-24,20.26-26.87-3.53-5.79-10-9.78-19.07-8.63C42,80.46,38.85,101.91,50,111.5l-4,5.11C30.78,103.72,35,74.25,59.6,71.12c13.47-1.71,22.74,5.47,26.95,15,12.8.18,21.15,7.41,24.78,16.54C137.83,105.35,138.16,146.88,108,146.88Zm-1.16-37.14c-1.56-9-8.54-17.09-20.57-17.09C70.47,92.65,64.47,107.23,67,119c-16.21,0-14.65,21.56-.47,21.56,10,0,30.07-.34,42.08-.34C129.55,140.21,129.32,107.67,106.85,109.74Zm-21.66-37,8.37-7.93,4.91,5.47L89,77.26ZM68.78,65.41l3.18-15L78.55,52,74.31,66.9ZM44.59,56.27l7.12-2,3.65,10.46-5.47,1.74ZM22.84,71.66l3.67-6.41L39.1,74.32l-2.84,5.25ZM31,99.42l-11.7.94-.18-7.58,11.39.9Zm8.77,19.9L28.23,130.21l-4.71-6.28,12.41-9.12Z"/></svg>